PathFileType	4	(X/Y/Z)	C:/Users/opensim2020/Desktop/walking_exp_matlab/subject02_walking16_run.trc	
DataRate	CameraRate	NumFrames	NumMarkers	Units	OrigDataRate	OrigDataStartFrame	OrigNumFrames	
100.00	100.00	4	51	mm	100.00	215	124	
Frame#	Time	RTOE			LSHO			LELB			RELB			RFIN			LTHI			LKNE			RWRB			RUPA			LTIB			RASI			LANK			LTOE			RSHO			RWRA			RFRM			LASI			STRN			LFHD			RTHI			RFHD			LWRB			LFIN			LUPA			RKNE			RBHD			LFRM			C7			LWRA			RTIB			CLAV			LHEE			RANK			LBHD			RBAK			RHEE			T10			LPSI			RPSI			*39			*40			*41			*42			*43			*44			*45			*46			*47			*48			*49			*50			
		X1	Y1	Z1	X2	Y2	Z2	X3	Y3	Z3	X4	Y4	Z4	X5	Y5	Z5	X6	Y6	Z6	X7	Y7	Z7	X8	Y8	Z8	X9	Y9	Z9	X10	Y10	Z10	X11	Y11	Z11	X12	Y12	Z12	X13	Y13	Z13	X14	Y14	Z14	X15	Y15	Z15	X16	Y16	Z16	X17	Y17	Z17	X18	Y18	Z18	X19	Y19	Z19	X20	Y20	Z20	X21	Y21	Z21	X22	Y22	Z22	X23	Y23	Z23	X24	Y24	Z24	X25	Y25	Z25	X26	Y26	Z26	X27	Y27	Z27	X28	Y28	Z28	X29	Y29	Z29	X30	Y30	Z30	X31	Y31	Z31	X32	Y32	Z32	X33	Y33	Z33	X34	Y34	Z34	X35	Y35	Z35	X36	Y36	Z36	X37	Y37	Z37	X38	Y38	Z38	X39	Y39	Z39	X40	Y40	Z40	X41	Y41	Z41	X42	Y42	Z42	X43	Y43	Z43	X44	Y44	Z44	X45	Y45	Z45	X46	Y46	Z46	X47	Y47	Z47	X48	Y48	Z48	X49	Y49	Z49	X50	Y50	Z50	X51	Y51	Z51	

63	0.620	125.82188	254.82706	37.33886	-103.78574	199.03905	1460.91162	-331.01657	295.32129	1228.62476	331.10736	-67.60835	1166.48474	335.29141	180.03224	1018.93585	-129.16989	139.61957	608.72229	-102.83502	96.30515	436.82346	322.85614	119.34225	999.08337	296.40823	-14.63608	1295.53406	-84.86790	-80.57592	420.10300	173.51772	194.01369	945.72345	-42.50768	-281.85721	354.20447	-66.18079	-318.08789	202.31833	233.71263	115.76444	1436.66931	296.01364	140.48788	1046.83496	332.71597	25.37584	1083.91284	-74.92263	212.59741	934.15613	64.19939	250.78322	1219.61719	-9.28450	233.23274	1695.72766	229.48161	176.64894	635.15070	135.14014	236.66519	1686.92224	-245.45613	393.50436	998.93964	-206.12337	402.22537	943.87067	-257.20554	243.50589	1342.83093	174.54518	243.94298	445.26068	131.66733	109.02008	1585.87781	-298.91003	351.53204	1103.10608	41.03363	88.97682	1477.97253	-203.27702	353.63614	1004.96381	173.18280	181.03477	272.54489	62.74191	223.86566	1401.61609	17.66290	-298.85938	374.68329	121.74888	112.59406	92.41921	-11.03213	117.39186	1598.78650	71.93967	2.09121	1316.08850	65.55716	62.37255	41.08701	19.66017	5.89629	1219.04749	-25.93492	10.88148	998.11420	89.77817	-9.40250	1001.58386				-3356.89893	2845.94629	1034.27148																									78.99778	121.58772	1747.35205			 
64	0.630	125.46127	254.59190	37.25517	-103.27773	238.16115	1457.16809	-345.03723	317.37720	1229.23083	335.54648	-9.54772	1150.23523	328.35284	248.35376	1021.43445	-128.21655	194.55807	608.34515	-102.20433	160.50728	436.41757	317.45901	189.35474	996.90753	302.61508	36.35403	1283.77771	-84.57594	-12.76107	416.49921	177.66740	229.01807	938.49225	-43.28881	-213.47523	350.73401	-66.64731	-242.50366	197.46008	237.30989	155.38408	1432.48486	290.65567	205.60190	1046.79407	332.12701	90.21964	1073.17603	-71.62512	248.70517	925.50220	64.60893	290.49075	1215.73340	-8.74733	269.70752	1694.59851	230.21056	203.32097	636.12793	135.89034	275.14597	1686.75732	-278.98538	414.56732	992.62396	-244.16336	423.62439	934.69568	-262.21902	273.59183	1340.93030	170.61288	272.28671	442.72375	134.55956	148.39496	1584.42590	-322.31531	372.69345	1101.30762	43.45833	126.43473	1475.15662	-233.97681	377.03922	996.39075	170.88812	190.94028	270.41159	63.75866	264.04260	1397.44141	15.67643	-233.94946	371.23297	121.50488	112.44746	92.16460	-8.37062	154.62778	1596.44189	76.60242	39.42477	1314.79663	65.85700	61.86916	41.75673	25.27197	44.51128	1218.17078	-23.15302	47.21708	987.27307	91.78046	25.40643	990.91754				-3356.70361	2846.02539	1034.42480																									80.97522	158.95462	1745.73901			 
65	0.640	125.28958	254.15147	37.24806	-104.04227	277.24380	1455.04993	-359.97070	336.12167	1236.34302	340.10791	50.92673	1138.09473	319.05048	318.45166	1030.31323	-127.26261	248.31093	610.49780	-100.60461	226.24823	439.24667	310.97156	261.35321	1000.89874	307.78314	85.62967	1274.96399	-83.93575	55.54696	414.52350	181.74380	266.20111	932.18073	-44.56113	-144.17706	344.70755	-66.75061	-163.73589	189.57735	238.53450	195.02124	1431.22546	283.51508	272.09286	1052.10156	330.60684	156.97794	1067.57422	-68.87782	285.56546	916.65796	65.13503	330.25238	1215.47754	-8.80192	306.39529	1694.08728	231.59547	232.32219	635.51489	134.99934	313.01511	1686.93555	-308.79031	432.07364	992.98401	-276.44791	441.98083	933.71381	-269.48022	299.65121	1343.09912	170.49969	286.28561	434.63348	136.23927	187.24547	1584.25134	-343.19479	391.60910	1104.91064	44.82503	166.46188	1475.98059	-260.29129	398.85812	996.45447	169.34843	196.91107	263.98178	64.06950	303.37622	1396.05847	13.60001	-168.20882	364.52417	120.68845	113.79410	90.65115	-6.75941	191.94705	1595.49927	82.95271	77.44141	1315.32349	64.17575	62.05247	42.36632	30.05443	83.06998	1217.76086	-16.54828	80.96440	988.20074	95.42587	62.48185	992.87238				-3356.88086	2846.26685	1034.38135																									81.55094	195.84245	1745.34558			 
66	0.650	125.29940	253.63907	37.20673	-106.18874	315.25534	1455.19922	-372.76810	353.05142	1249.69385	344.84476	113.24609	1129.70154	307.32837	388.38303	1045.93823	-126.40624	300.91925	614.18011	-98.51878	292.27136	443.60114	303.86819	333.73886	1011.83600	310.69858	134.32608	1269.38977	-82.59680	123.95264	414.70944	187.65712	300.73099	925.20764	-46.55523	-74.23347	335.30228	-66.99975	-81.60308	179.34192	239.51848	235.64180	1432.23987	275.70731	338.00595	1063.39392	329.16626	225.19095	1068.78064	-67.01043	324.81186	909.72595	66.34328	369.52939	1216.19434	-9.35348	343.74469	1694.40698	233.01675	262.06247	634.48969	135.18327	351.58374	1688.24646	-333.67114	447.12738	999.11340	-302.34573	458.58185	939.25848	-275.78607	320.71576	1350.53662	173.13713	294.72534	428.25397	136.90907	226.09013	1584.70972	-361.53308	408.65555	1114.48474	46.51817	206.79095	1477.93237	-281.24805	420.64258	1003.56610	167.64919	202.64186	259.42670	63.41967	342.59912	1396.23206	10.95717	-102.06889	354.11639	119.76002	114.33913	90.64722	-6.04120	229.83572	1595.34888	88.51448	116.80033	1317.52576	62.18213	61.93102	43.71963	33.65623	121.76824	1218.09473	-12.23925	115.48140	992.37732	98.58916	100.78690	999.31018				-3356.69409	2846.08740	1034.36047																									81.04406	233.34270	1745.54956			 
